M48
; DRILL file {KiCad 5.1.9-73d0e3b20d~88~ubuntu20.04.1} date Sun Jan 16 22:13:52 2022
; FORMAT={-:-/ absolute / inch / decimal}
; #@! TF.CreationDate,2022-01-16T22:13:52+01:00
; #@! TF.GenerationSoftware,Kicad,Pcbnew,5.1.9-73d0e3b20d~88~ubuntu20.04.1
FMAT,2
INCH
T1C0.0157
T2C0.0197
T3C0.0276
T4C0.0394
T5C0.0906
%
G90
G05
T1
X2.9823Y-3.5031
X2.9831Y-3.1685
X3.0295Y-3.5031
X3.0303Y-3.1685
X3.0768Y-3.5031
X3.0776Y-3.1685
X3.124Y-3.5031
X3.1886Y-3.0736
X3.2382Y-3.3969
X3.4213Y-3.3969
X3.487Y-3.1035
X3.6644Y-3.3104
X3.6646Y-3.285
X3.6646Y-3.337
X3.665Y-3.2591
X3.863Y-3.3614
T2
X3.3909Y-3.2886
T3
X3.8571Y-3.1283
X4.0571Y-3.1283
T4
X3.1776Y-2.8323
X3.276Y-2.8323
X3.3744Y-2.8323
X3.7783Y-2.8323
X3.8768Y-2.8323
X3.9752Y-2.8323
X4.0575Y-3.2965
X4.0575Y-3.3965
T5
X3.0791Y-2.9622
X3.4728Y-2.9622
X3.6799Y-2.9622
X4.0736Y-2.9622
T0
M30
