G04 #@! TF.GenerationSoftware,KiCad,Pcbnew,5.1.9-73d0e3b20d~88~ubuntu20.04.1*
G04 #@! TF.CreationDate,2022-01-16T22:13:46+01:00*
G04 #@! TF.ProjectId,RFBandaid,52464261-6e64-4616-9964-2e6b69636164,rev?*
G04 #@! TF.SameCoordinates,Original*
G04 #@! TF.FileFunction,Legend,Top*
G04 #@! TF.FilePolarity,Positive*
%FSLAX46Y46*%
G04 Gerber Fmt 4.6, Leading zero omitted, Abs format (unit mm)*
G04 Created by KiCad (PCBNEW 5.1.9-73d0e3b20d~88~ubuntu20.04.1) date 2022-01-16 22:13:46*
%MOMM*%
%LPD*%
G01*
G04 APERTURE LIST*
%ADD10C,0.375000*%
%ADD11C,0.250000*%
%ADD12C,0.120000*%
%ADD13C,0.150000*%
G04 APERTURE END LIST*
D10*
X96117142Y-90648571D02*
X96117142Y-89148571D01*
X96474285Y-89148571D01*
X96688571Y-89220000D01*
X96831428Y-89362857D01*
X96902857Y-89505714D01*
X96974285Y-89791428D01*
X96974285Y-90005714D01*
X96902857Y-90291428D01*
X96831428Y-90434285D01*
X96688571Y-90577142D01*
X96474285Y-90648571D01*
X96117142Y-90648571D01*
X97617142Y-89148571D02*
X97617142Y-90362857D01*
X97688571Y-90505714D01*
X97760000Y-90577142D01*
X97902857Y-90648571D01*
X98188571Y-90648571D01*
X98331428Y-90577142D01*
X98402857Y-90505714D01*
X98474285Y-90362857D01*
X98474285Y-89148571D01*
X98974285Y-89148571D02*
X99831428Y-89148571D01*
X99402857Y-90648571D02*
X99402857Y-89148571D01*
X100617142Y-89934285D02*
X100617142Y-90648571D01*
X100117142Y-89148571D02*
X100617142Y-89934285D01*
X101117142Y-89148571D01*
X81938571Y-89812857D02*
X81438571Y-89812857D01*
X81438571Y-90598571D02*
X81438571Y-89098571D01*
X82152857Y-89098571D01*
X83581428Y-90598571D02*
X83081428Y-89884285D01*
X82724285Y-90598571D02*
X82724285Y-89098571D01*
X83295714Y-89098571D01*
X83438571Y-89170000D01*
X83510000Y-89241428D01*
X83581428Y-89384285D01*
X83581428Y-89598571D01*
X83510000Y-89741428D01*
X83438571Y-89812857D01*
X83295714Y-89884285D01*
X82724285Y-89884285D01*
X85224285Y-90741428D02*
X85081428Y-90670000D01*
X84938571Y-90527142D01*
X84724285Y-90312857D01*
X84581428Y-90241428D01*
X84438571Y-90241428D01*
X84510000Y-90598571D02*
X84367142Y-90527142D01*
X84224285Y-90384285D01*
X84152857Y-90098571D01*
X84152857Y-89598571D01*
X84224285Y-89312857D01*
X84367142Y-89170000D01*
X84510000Y-89098571D01*
X84795714Y-89098571D01*
X84938571Y-89170000D01*
X85081428Y-89312857D01*
X85152857Y-89598571D01*
X85152857Y-90098571D01*
X85081428Y-90384285D01*
X84938571Y-90527142D01*
X84795714Y-90598571D01*
X84510000Y-90598571D01*
D11*
X105069047Y-86321428D02*
X105830952Y-86321428D01*
X105089047Y-83811428D02*
X105850952Y-83811428D01*
X105470000Y-84192380D02*
X105470000Y-83430476D01*
D12*
X95350000Y-60220000D02*
X101590000Y-60220000D01*
X95350000Y-67620000D02*
X101590000Y-67620000D01*
X101590000Y-67620000D02*
X101590000Y-60220000D01*
X95350000Y-67620000D02*
X95350000Y-60220000D01*
X95100000Y-67620000D02*
X101840000Y-67620000D01*
X95100000Y-68420000D02*
X101840000Y-68420000D01*
X101840000Y-68420000D02*
X101840000Y-67620000D01*
X95100000Y-68420000D02*
X95100000Y-67620000D01*
X93449000Y-68420000D02*
X103490000Y-68420000D01*
X96026000Y-75460000D02*
X100915000Y-75460000D01*
X103490000Y-72685000D02*
X103490000Y-68420000D01*
X93449000Y-72685000D02*
X93449000Y-68420000D01*
X78189000Y-72685000D02*
X78189000Y-68420000D01*
X88230000Y-72685000D02*
X88230000Y-68420000D01*
X80766000Y-75460000D02*
X85655000Y-75460000D01*
X78189000Y-68420000D02*
X88230000Y-68420000D01*
X79840000Y-68420000D02*
X79840000Y-67620000D01*
X86580000Y-68420000D02*
X86580000Y-67620000D01*
X79840000Y-68420000D02*
X86580000Y-68420000D01*
X79840000Y-67620000D02*
X86580000Y-67620000D01*
X80090000Y-67620000D02*
X80090000Y-60220000D01*
X86330000Y-67620000D02*
X86330000Y-60220000D01*
X80090000Y-67620000D02*
X86330000Y-67620000D01*
X80090000Y-60220000D02*
X86330000Y-60220000D01*
X90940000Y-85360000D02*
X92440000Y-85360000D01*
X90940000Y-85360000D02*
X89440000Y-85360000D01*
X90940000Y-82140000D02*
X92440000Y-82140000D01*
X90940000Y-82140000D02*
X88015000Y-82140000D01*
X87420000Y-85650580D02*
X87420000Y-85369420D01*
X86400000Y-85650580D02*
X86400000Y-85369420D01*
X84449420Y-85270000D02*
X84730580Y-85270000D01*
X84449420Y-84250000D02*
X84730580Y-84250000D01*
X81750000Y-85650580D02*
X81750000Y-85369420D01*
X82770000Y-85650580D02*
X82770000Y-85369420D01*
X81270000Y-84480000D02*
X80770000Y-84730000D01*
X81270000Y-84980000D02*
X81270000Y-84480000D01*
X80770000Y-84730000D02*
X81270000Y-84980000D01*
X101730000Y-87600000D02*
X104390000Y-87600000D01*
X101730000Y-85000000D02*
X101730000Y-87600000D01*
X104390000Y-85000000D02*
X104390000Y-87600000D01*
X101730000Y-85000000D02*
X104390000Y-85000000D01*
X101730000Y-83730000D02*
X101730000Y-82400000D01*
X101730000Y-82400000D02*
X103060000Y-82400000D01*
X95370000Y-84422164D02*
X95370000Y-84637836D01*
X94650000Y-84422164D02*
X94650000Y-84637836D01*
X97320000Y-84449420D02*
X97320000Y-84730580D01*
X96300000Y-84449420D02*
X96300000Y-84730580D01*
X81760000Y-78689420D02*
X81760000Y-78970580D01*
X82780000Y-78689420D02*
X82780000Y-78970580D01*
X98590000Y-80380000D02*
X102430000Y-80380000D01*
X98590000Y-78540000D02*
X102430000Y-78540000D01*
X85290000Y-80340000D02*
X87720000Y-80340000D01*
X87050000Y-77270000D02*
X85290000Y-77270000D01*
D13*
X97924761Y-70312380D02*
X97591428Y-69836190D01*
X97353333Y-70312380D02*
X97353333Y-69312380D01*
X97734285Y-69312380D01*
X97829523Y-69360000D01*
X97877142Y-69407619D01*
X97924761Y-69502857D01*
X97924761Y-69645714D01*
X97877142Y-69740952D01*
X97829523Y-69788571D01*
X97734285Y-69836190D01*
X97353333Y-69836190D01*
X98210476Y-69312380D02*
X98543809Y-70312380D01*
X98877142Y-69312380D01*
X99734285Y-70312380D02*
X99162857Y-70312380D01*
X99448571Y-70312380D02*
X99448571Y-69312380D01*
X99353333Y-69455238D01*
X99258095Y-69550476D01*
X99162857Y-69598095D01*
X82644761Y-70282380D02*
X82311428Y-69806190D01*
X82073333Y-70282380D02*
X82073333Y-69282380D01*
X82454285Y-69282380D01*
X82549523Y-69330000D01*
X82597142Y-69377619D01*
X82644761Y-69472857D01*
X82644761Y-69615714D01*
X82597142Y-69710952D01*
X82549523Y-69758571D01*
X82454285Y-69806190D01*
X82073333Y-69806190D01*
X82930476Y-69282380D02*
X83263809Y-70282380D01*
X83597142Y-69282380D01*
X83882857Y-69377619D02*
X83930476Y-69330000D01*
X84025714Y-69282380D01*
X84263809Y-69282380D01*
X84359047Y-69330000D01*
X84406666Y-69377619D01*
X84454285Y-69472857D01*
X84454285Y-69568095D01*
X84406666Y-69710952D01*
X83835238Y-70282380D01*
X84454285Y-70282380D01*
X90178095Y-80752380D02*
X90178095Y-81561904D01*
X90225714Y-81657142D01*
X90273333Y-81704761D01*
X90368571Y-81752380D01*
X90559047Y-81752380D01*
X90654285Y-81704761D01*
X90701904Y-81657142D01*
X90749523Y-81561904D01*
X90749523Y-80752380D01*
X91178095Y-80847619D02*
X91225714Y-80800000D01*
X91320952Y-80752380D01*
X91559047Y-80752380D01*
X91654285Y-80800000D01*
X91701904Y-80847619D01*
X91749523Y-80942857D01*
X91749523Y-81038095D01*
X91701904Y-81180952D01*
X91130476Y-81752380D01*
X91749523Y-81752380D01*
X86703333Y-88227142D02*
X86655714Y-88274761D01*
X86512857Y-88322380D01*
X86417619Y-88322380D01*
X86274761Y-88274761D01*
X86179523Y-88179523D01*
X86131904Y-88084285D01*
X86084285Y-87893809D01*
X86084285Y-87750952D01*
X86131904Y-87560476D01*
X86179523Y-87465238D01*
X86274761Y-87370000D01*
X86417619Y-87322380D01*
X86512857Y-87322380D01*
X86655714Y-87370000D01*
X86703333Y-87417619D01*
X87036666Y-87322380D02*
X87655714Y-87322380D01*
X87322380Y-87703333D01*
X87465238Y-87703333D01*
X87560476Y-87750952D01*
X87608095Y-87798571D01*
X87655714Y-87893809D01*
X87655714Y-88131904D01*
X87608095Y-88227142D01*
X87560476Y-88274761D01*
X87465238Y-88322380D01*
X87179523Y-88322380D01*
X87084285Y-88274761D01*
X87036666Y-88227142D01*
X84463333Y-88247142D02*
X84415714Y-88294761D01*
X84272857Y-88342380D01*
X84177619Y-88342380D01*
X84034761Y-88294761D01*
X83939523Y-88199523D01*
X83891904Y-88104285D01*
X83844285Y-87913809D01*
X83844285Y-87770952D01*
X83891904Y-87580476D01*
X83939523Y-87485238D01*
X84034761Y-87390000D01*
X84177619Y-87342380D01*
X84272857Y-87342380D01*
X84415714Y-87390000D01*
X84463333Y-87437619D01*
X85320476Y-87675714D02*
X85320476Y-88342380D01*
X85082380Y-87294761D02*
X84844285Y-88009047D01*
X85463333Y-88009047D01*
X82093333Y-88257142D02*
X82045714Y-88304761D01*
X81902857Y-88352380D01*
X81807619Y-88352380D01*
X81664761Y-88304761D01*
X81569523Y-88209523D01*
X81521904Y-88114285D01*
X81474285Y-87923809D01*
X81474285Y-87780952D01*
X81521904Y-87590476D01*
X81569523Y-87495238D01*
X81664761Y-87400000D01*
X81807619Y-87352380D01*
X81902857Y-87352380D01*
X82045714Y-87400000D01*
X82093333Y-87447619D01*
X82998095Y-87352380D02*
X82521904Y-87352380D01*
X82474285Y-87828571D01*
X82521904Y-87780952D01*
X82617142Y-87733333D01*
X82855238Y-87733333D01*
X82950476Y-87780952D01*
X82998095Y-87828571D01*
X83045714Y-87923809D01*
X83045714Y-88161904D01*
X82998095Y-88257142D01*
X82950476Y-88304761D01*
X82855238Y-88352380D01*
X82617142Y-88352380D01*
X82521904Y-88304761D01*
X82474285Y-88257142D01*
X77256666Y-77722380D02*
X77256666Y-78436666D01*
X77209047Y-78579523D01*
X77113809Y-78674761D01*
X76970952Y-78722380D01*
X76875714Y-78722380D01*
X78256666Y-78722380D02*
X77685238Y-78722380D01*
X77970952Y-78722380D02*
X77970952Y-77722380D01*
X77875714Y-77865238D01*
X77780476Y-77960476D01*
X77685238Y-78008095D01*
X95397142Y-82726666D02*
X95444761Y-82774285D01*
X95492380Y-82917142D01*
X95492380Y-83012380D01*
X95444761Y-83155238D01*
X95349523Y-83250476D01*
X95254285Y-83298095D01*
X95063809Y-83345714D01*
X94920952Y-83345714D01*
X94730476Y-83298095D01*
X94635238Y-83250476D01*
X94540000Y-83155238D01*
X94492380Y-83012380D01*
X94492380Y-82917142D01*
X94540000Y-82774285D01*
X94587619Y-82726666D01*
X94492380Y-81869523D02*
X94492380Y-82060000D01*
X94540000Y-82155238D01*
X94587619Y-82202857D01*
X94730476Y-82298095D01*
X94920952Y-82345714D01*
X95301904Y-82345714D01*
X95397142Y-82298095D01*
X95444761Y-82250476D01*
X95492380Y-82155238D01*
X95492380Y-81964761D01*
X95444761Y-81869523D01*
X95397142Y-81821904D01*
X95301904Y-81774285D01*
X95063809Y-81774285D01*
X94968571Y-81821904D01*
X94920952Y-81869523D01*
X94873333Y-81964761D01*
X94873333Y-82155238D01*
X94920952Y-82250476D01*
X94968571Y-82298095D01*
X95063809Y-82345714D01*
X96703333Y-82707142D02*
X96655714Y-82754761D01*
X96512857Y-82802380D01*
X96417619Y-82802380D01*
X96274761Y-82754761D01*
X96179523Y-82659523D01*
X96131904Y-82564285D01*
X96084285Y-82373809D01*
X96084285Y-82230952D01*
X96131904Y-82040476D01*
X96179523Y-81945238D01*
X96274761Y-81850000D01*
X96417619Y-81802380D01*
X96512857Y-81802380D01*
X96655714Y-81850000D01*
X96703333Y-81897619D01*
X97036666Y-81802380D02*
X97703333Y-81802380D01*
X97274761Y-82802380D01*
X82607142Y-81526666D02*
X82654761Y-81574285D01*
X82702380Y-81717142D01*
X82702380Y-81812380D01*
X82654761Y-81955238D01*
X82559523Y-82050476D01*
X82464285Y-82098095D01*
X82273809Y-82145714D01*
X82130952Y-82145714D01*
X81940476Y-82098095D01*
X81845238Y-82050476D01*
X81750000Y-81955238D01*
X81702380Y-81812380D01*
X81702380Y-81717142D01*
X81750000Y-81574285D01*
X81797619Y-81526666D01*
X82130952Y-80955238D02*
X82083333Y-81050476D01*
X82035714Y-81098095D01*
X81940476Y-81145714D01*
X81892857Y-81145714D01*
X81797619Y-81098095D01*
X81750000Y-81050476D01*
X81702380Y-80955238D01*
X81702380Y-80764761D01*
X81750000Y-80669523D01*
X81797619Y-80621904D01*
X81892857Y-80574285D01*
X81940476Y-80574285D01*
X82035714Y-80621904D01*
X82083333Y-80669523D01*
X82130952Y-80764761D01*
X82130952Y-80955238D01*
X82178571Y-81050476D01*
X82226190Y-81098095D01*
X82321428Y-81145714D01*
X82511904Y-81145714D01*
X82607142Y-81098095D01*
X82654761Y-81050476D01*
X82702380Y-80955238D01*
X82702380Y-80764761D01*
X82654761Y-80669523D01*
X82607142Y-80621904D01*
X82511904Y-80574285D01*
X82321428Y-80574285D01*
X82226190Y-80621904D01*
X82178571Y-80669523D01*
X82130952Y-80764761D01*
X100493333Y-79912380D02*
X100160000Y-79436190D01*
X99921904Y-79912380D02*
X99921904Y-78912380D01*
X100302857Y-78912380D01*
X100398095Y-78960000D01*
X100445714Y-79007619D01*
X100493333Y-79102857D01*
X100493333Y-79245714D01*
X100445714Y-79340952D01*
X100398095Y-79388571D01*
X100302857Y-79436190D01*
X99921904Y-79436190D01*
X101445714Y-79912380D02*
X100874285Y-79912380D01*
X101160000Y-79912380D02*
X101160000Y-78912380D01*
X101064761Y-79055238D01*
X100969523Y-79150476D01*
X100874285Y-79198095D01*
X85408095Y-80732380D02*
X85408095Y-81541904D01*
X85455714Y-81637142D01*
X85503333Y-81684761D01*
X85598571Y-81732380D01*
X85789047Y-81732380D01*
X85884285Y-81684761D01*
X85931904Y-81637142D01*
X85979523Y-81541904D01*
X85979523Y-80732380D01*
X86979523Y-81732380D02*
X86408095Y-81732380D01*
X86693809Y-81732380D02*
X86693809Y-80732380D01*
X86598571Y-80875238D01*
X86503333Y-80970476D01*
X86408095Y-81018095D01*
M02*
