G04 #@! TF.GenerationSoftware,KiCad,Pcbnew,5.1.9-73d0e3b20d~88~ubuntu20.04.1*
G04 #@! TF.CreationDate,2022-01-16T22:13:46+01:00*
G04 #@! TF.ProjectId,RFBandaid,52464261-6e64-4616-9964-2e6b69636164,rev?*
G04 #@! TF.SameCoordinates,Original*
G04 #@! TF.FileFunction,Copper,L2,Bot*
G04 #@! TF.FilePolarity,Positive*
%FSLAX46Y46*%
G04 Gerber Fmt 4.6, Leading zero omitted, Abs format (unit mm)*
G04 Created by KiCad (PCBNEW 5.1.9-73d0e3b20d~88~ubuntu20.04.1) date 2022-01-16 22:13:46*
%MOMM*%
%LPD*%
G01*
G04 APERTURE LIST*
G04 #@! TA.AperFunction,ComponentPad*
%ADD10C,1.800000*%
G04 #@! TD*
G04 #@! TA.AperFunction,ComponentPad*
%ADD11O,4.600000X2.500000*%
G04 #@! TD*
G04 #@! TA.AperFunction,ComponentPad*
%ADD12R,0.850000X0.850000*%
G04 #@! TD*
G04 #@! TA.AperFunction,SMDPad,CuDef*
%ADD13R,5.080000X1.500000*%
G04 #@! TD*
G04 #@! TA.AperFunction,ComponentPad*
%ADD14R,1.700000X1.700000*%
G04 #@! TD*
G04 #@! TA.AperFunction,ComponentPad*
%ADD15O,1.700000X1.700000*%
G04 #@! TD*
G04 #@! TA.AperFunction,ComponentPad*
%ADD16C,1.400000*%
G04 #@! TD*
G04 #@! TA.AperFunction,ComponentPad*
%ADD17O,1.400000X1.400000*%
G04 #@! TD*
G04 #@! TA.AperFunction,ViaPad*
%ADD18C,0.800000*%
G04 #@! TD*
G04 #@! TA.AperFunction,Conductor*
%ADD19C,0.254000*%
G04 #@! TD*
G04 #@! TA.AperFunction,Conductor*
%ADD20C,0.100000*%
G04 #@! TD*
G04 APERTURE END LIST*
D10*
X95970000Y-71940000D03*
X98470000Y-71940000D03*
X100970000Y-71940000D03*
D11*
X93470000Y-75240000D03*
X103470000Y-75240000D03*
X88210000Y-75240000D03*
X78210000Y-75240000D03*
D10*
X85710000Y-71940000D03*
X83210000Y-71940000D03*
X80710000Y-71940000D03*
D12*
X86130000Y-83530000D03*
D13*
X77560000Y-80480000D03*
X77560000Y-88980000D03*
D14*
X103060000Y-83730000D03*
D15*
X103060000Y-86270000D03*
D16*
X97970000Y-79460000D03*
D17*
X103050000Y-79460000D03*
D18*
X75750000Y-88980000D03*
X93080000Y-83440000D03*
X93090000Y-82780000D03*
X93080000Y-84760000D03*
X82250000Y-86280000D03*
X86900000Y-86280000D03*
X76950000Y-88980000D03*
X78150000Y-88980000D03*
X79350000Y-88980000D03*
X76970000Y-80480000D03*
X75770000Y-80480000D03*
X78170000Y-80480000D03*
X93075000Y-84085000D03*
X98120000Y-85380000D03*
X80990000Y-78070000D03*
X88570000Y-78830000D03*
D19*
X105510001Y-73631788D02*
X105244848Y-73490061D01*
X104889524Y-73382275D01*
X104612597Y-73355000D01*
X102327403Y-73355000D01*
X102050476Y-73382275D01*
X101695152Y-73490061D01*
X101367683Y-73665097D01*
X101080655Y-73900655D01*
X100845097Y-74187683D01*
X100670061Y-74515152D01*
X100562275Y-74870476D01*
X100525880Y-75240000D01*
X100562275Y-75609524D01*
X100670061Y-75964848D01*
X100845097Y-76292317D01*
X101080655Y-76579345D01*
X101367683Y-76814903D01*
X101695152Y-76989939D01*
X102050476Y-77097725D01*
X102327403Y-77125000D01*
X104612597Y-77125000D01*
X104889524Y-77097725D01*
X105244848Y-76989939D01*
X105510001Y-76848212D01*
X105510000Y-90610000D01*
X75680000Y-90610000D01*
X75680000Y-83105000D01*
X85066928Y-83105000D01*
X85066928Y-83955000D01*
X85079188Y-84079482D01*
X85115498Y-84199180D01*
X85174463Y-84309494D01*
X85253815Y-84406185D01*
X85350506Y-84485537D01*
X85460820Y-84544502D01*
X85580518Y-84580812D01*
X85705000Y-84593072D01*
X86555000Y-84593072D01*
X86679482Y-84580812D01*
X86799180Y-84544502D01*
X86909494Y-84485537D01*
X87006185Y-84406185D01*
X87085537Y-84309494D01*
X87144502Y-84199180D01*
X87180812Y-84079482D01*
X87193072Y-83955000D01*
X87193072Y-83105000D01*
X87180812Y-82980518D01*
X87150321Y-82880000D01*
X101571928Y-82880000D01*
X101571928Y-84580000D01*
X101584188Y-84704482D01*
X101620498Y-84824180D01*
X101679463Y-84934494D01*
X101758815Y-85031185D01*
X101855506Y-85110537D01*
X101965820Y-85169502D01*
X102085518Y-85205812D01*
X102210000Y-85218072D01*
X103910000Y-85218072D01*
X104034482Y-85205812D01*
X104154180Y-85169502D01*
X104264494Y-85110537D01*
X104361185Y-85031185D01*
X104440537Y-84934494D01*
X104499502Y-84824180D01*
X104535812Y-84704482D01*
X104548072Y-84580000D01*
X104548072Y-82880000D01*
X104535812Y-82755518D01*
X104499502Y-82635820D01*
X104440537Y-82525506D01*
X104361185Y-82428815D01*
X104264494Y-82349463D01*
X104154180Y-82290498D01*
X104034482Y-82254188D01*
X103910000Y-82241928D01*
X102210000Y-82241928D01*
X102085518Y-82254188D01*
X101965820Y-82290498D01*
X101855506Y-82349463D01*
X101758815Y-82428815D01*
X101679463Y-82525506D01*
X101620498Y-82635820D01*
X101584188Y-82755518D01*
X101571928Y-82880000D01*
X87150321Y-82880000D01*
X87144502Y-82860820D01*
X87085537Y-82750506D01*
X87006185Y-82653815D01*
X86909494Y-82574463D01*
X86799180Y-82515498D01*
X86679482Y-82479188D01*
X86555000Y-82466928D01*
X85705000Y-82466928D01*
X85580518Y-82479188D01*
X85460820Y-82515498D01*
X85350506Y-82574463D01*
X85253815Y-82653815D01*
X85174463Y-82750506D01*
X85115498Y-82860820D01*
X85079188Y-82980518D01*
X85066928Y-83105000D01*
X75680000Y-83105000D01*
X75680000Y-79328514D01*
X96635000Y-79328514D01*
X96635000Y-79591486D01*
X96686304Y-79849405D01*
X96786939Y-80092359D01*
X96933038Y-80311013D01*
X97118987Y-80496962D01*
X97337641Y-80643061D01*
X97580595Y-80743696D01*
X97838514Y-80795000D01*
X98101486Y-80795000D01*
X98359405Y-80743696D01*
X98602359Y-80643061D01*
X98821013Y-80496962D01*
X99006962Y-80311013D01*
X99153061Y-80092359D01*
X99253696Y-79849405D01*
X99305000Y-79591486D01*
X99305000Y-79328514D01*
X101715000Y-79328514D01*
X101715000Y-79591486D01*
X101766304Y-79849405D01*
X101866939Y-80092359D01*
X102013038Y-80311013D01*
X102198987Y-80496962D01*
X102417641Y-80643061D01*
X102660595Y-80743696D01*
X102918514Y-80795000D01*
X103181486Y-80795000D01*
X103439405Y-80743696D01*
X103682359Y-80643061D01*
X103901013Y-80496962D01*
X104086962Y-80311013D01*
X104233061Y-80092359D01*
X104333696Y-79849405D01*
X104385000Y-79591486D01*
X104385000Y-79328514D01*
X104333696Y-79070595D01*
X104233061Y-78827641D01*
X104086962Y-78608987D01*
X103901013Y-78423038D01*
X103682359Y-78276939D01*
X103439405Y-78176304D01*
X103181486Y-78125000D01*
X102918514Y-78125000D01*
X102660595Y-78176304D01*
X102417641Y-78276939D01*
X102198987Y-78423038D01*
X102013038Y-78608987D01*
X101866939Y-78827641D01*
X101766304Y-79070595D01*
X101715000Y-79328514D01*
X99305000Y-79328514D01*
X99253696Y-79070595D01*
X99153061Y-78827641D01*
X99006962Y-78608987D01*
X98821013Y-78423038D01*
X98602359Y-78276939D01*
X98359405Y-78176304D01*
X98101486Y-78125000D01*
X97838514Y-78125000D01*
X97580595Y-78176304D01*
X97337641Y-78276939D01*
X97118987Y-78423038D01*
X96933038Y-78608987D01*
X96786939Y-78827641D01*
X96686304Y-79070595D01*
X96635000Y-79328514D01*
X75680000Y-79328514D01*
X75680000Y-76407957D01*
X75820655Y-76579345D01*
X76107683Y-76814903D01*
X76435152Y-76989939D01*
X76790476Y-77097725D01*
X77067403Y-77125000D01*
X79352597Y-77125000D01*
X79629524Y-77097725D01*
X79984848Y-76989939D01*
X80312317Y-76814903D01*
X80599345Y-76579345D01*
X80834903Y-76292317D01*
X81009939Y-75964848D01*
X81117725Y-75609524D01*
X81154120Y-75240000D01*
X85265880Y-75240000D01*
X85302275Y-75609524D01*
X85410061Y-75964848D01*
X85585097Y-76292317D01*
X85820655Y-76579345D01*
X86107683Y-76814903D01*
X86435152Y-76989939D01*
X86790476Y-77097725D01*
X87067403Y-77125000D01*
X89352597Y-77125000D01*
X89629524Y-77097725D01*
X89984848Y-76989939D01*
X90312317Y-76814903D01*
X90599345Y-76579345D01*
X90834903Y-76292317D01*
X90840000Y-76282781D01*
X90845097Y-76292317D01*
X91080655Y-76579345D01*
X91367683Y-76814903D01*
X91695152Y-76989939D01*
X92050476Y-77097725D01*
X92327403Y-77125000D01*
X94612597Y-77125000D01*
X94889524Y-77097725D01*
X95244848Y-76989939D01*
X95572317Y-76814903D01*
X95859345Y-76579345D01*
X96094903Y-76292317D01*
X96269939Y-75964848D01*
X96377725Y-75609524D01*
X96414120Y-75240000D01*
X96377725Y-74870476D01*
X96269939Y-74515152D01*
X96094903Y-74187683D01*
X95859345Y-73900655D01*
X95572317Y-73665097D01*
X95244848Y-73490061D01*
X94889524Y-73382275D01*
X94612597Y-73355000D01*
X92327403Y-73355000D01*
X92050476Y-73382275D01*
X91695152Y-73490061D01*
X91367683Y-73665097D01*
X91080655Y-73900655D01*
X90845097Y-74187683D01*
X90840000Y-74197219D01*
X90834903Y-74187683D01*
X90599345Y-73900655D01*
X90312317Y-73665097D01*
X89984848Y-73490061D01*
X89629524Y-73382275D01*
X89352597Y-73355000D01*
X87067403Y-73355000D01*
X86790476Y-73382275D01*
X86435152Y-73490061D01*
X86107683Y-73665097D01*
X85820655Y-73900655D01*
X85585097Y-74187683D01*
X85410061Y-74515152D01*
X85302275Y-74870476D01*
X85265880Y-75240000D01*
X81154120Y-75240000D01*
X81117725Y-74870476D01*
X81009939Y-74515152D01*
X80834903Y-74187683D01*
X80599345Y-73900655D01*
X80312317Y-73665097D01*
X79984848Y-73490061D01*
X79629524Y-73382275D01*
X79352597Y-73355000D01*
X77067403Y-73355000D01*
X76790476Y-73382275D01*
X76435152Y-73490061D01*
X76107683Y-73665097D01*
X75820655Y-73900655D01*
X75680000Y-74072043D01*
X75680000Y-71788816D01*
X81675000Y-71788816D01*
X81675000Y-72091184D01*
X81733989Y-72387743D01*
X81849701Y-72667095D01*
X82017688Y-72918505D01*
X82231495Y-73132312D01*
X82482905Y-73300299D01*
X82762257Y-73416011D01*
X83058816Y-73475000D01*
X83361184Y-73475000D01*
X83657743Y-73416011D01*
X83937095Y-73300299D01*
X84188505Y-73132312D01*
X84402312Y-72918505D01*
X84460000Y-72832169D01*
X84517688Y-72918505D01*
X84731495Y-73132312D01*
X84982905Y-73300299D01*
X85262257Y-73416011D01*
X85558816Y-73475000D01*
X85861184Y-73475000D01*
X86157743Y-73416011D01*
X86437095Y-73300299D01*
X86688505Y-73132312D01*
X86902312Y-72918505D01*
X87070299Y-72667095D01*
X87186011Y-72387743D01*
X87245000Y-72091184D01*
X87245000Y-71788816D01*
X96935000Y-71788816D01*
X96935000Y-72091184D01*
X96993989Y-72387743D01*
X97109701Y-72667095D01*
X97277688Y-72918505D01*
X97491495Y-73132312D01*
X97742905Y-73300299D01*
X98022257Y-73416011D01*
X98318816Y-73475000D01*
X98621184Y-73475000D01*
X98917743Y-73416011D01*
X99197095Y-73300299D01*
X99448505Y-73132312D01*
X99662312Y-72918505D01*
X99720000Y-72832169D01*
X99777688Y-72918505D01*
X99991495Y-73132312D01*
X100242905Y-73300299D01*
X100522257Y-73416011D01*
X100818816Y-73475000D01*
X101121184Y-73475000D01*
X101417743Y-73416011D01*
X101697095Y-73300299D01*
X101948505Y-73132312D01*
X102162312Y-72918505D01*
X102330299Y-72667095D01*
X102446011Y-72387743D01*
X102505000Y-72091184D01*
X102505000Y-71788816D01*
X102446011Y-71492257D01*
X102330299Y-71212905D01*
X102162312Y-70961495D01*
X101948505Y-70747688D01*
X101697095Y-70579701D01*
X101417743Y-70463989D01*
X101121184Y-70405000D01*
X100818816Y-70405000D01*
X100522257Y-70463989D01*
X100242905Y-70579701D01*
X99991495Y-70747688D01*
X99777688Y-70961495D01*
X99720000Y-71047831D01*
X99662312Y-70961495D01*
X99448505Y-70747688D01*
X99197095Y-70579701D01*
X98917743Y-70463989D01*
X98621184Y-70405000D01*
X98318816Y-70405000D01*
X98022257Y-70463989D01*
X97742905Y-70579701D01*
X97491495Y-70747688D01*
X97277688Y-70961495D01*
X97109701Y-71212905D01*
X96993989Y-71492257D01*
X96935000Y-71788816D01*
X87245000Y-71788816D01*
X87186011Y-71492257D01*
X87070299Y-71212905D01*
X86902312Y-70961495D01*
X86688505Y-70747688D01*
X86437095Y-70579701D01*
X86157743Y-70463989D01*
X85861184Y-70405000D01*
X85558816Y-70405000D01*
X85262257Y-70463989D01*
X84982905Y-70579701D01*
X84731495Y-70747688D01*
X84517688Y-70961495D01*
X84460000Y-71047831D01*
X84402312Y-70961495D01*
X84188505Y-70747688D01*
X83937095Y-70579701D01*
X83657743Y-70463989D01*
X83361184Y-70405000D01*
X83058816Y-70405000D01*
X82762257Y-70463989D01*
X82482905Y-70579701D01*
X82231495Y-70747688D01*
X82017688Y-70961495D01*
X81849701Y-71212905D01*
X81733989Y-71492257D01*
X81675000Y-71788816D01*
X75680000Y-71788816D01*
X75680000Y-69030000D01*
X105510001Y-69030000D01*
X105510001Y-73631788D01*
G04 #@! TA.AperFunction,Conductor*
D20*
G36*
X105510001Y-73631788D02*
G01*
X105244848Y-73490061D01*
X104889524Y-73382275D01*
X104612597Y-73355000D01*
X102327403Y-73355000D01*
X102050476Y-73382275D01*
X101695152Y-73490061D01*
X101367683Y-73665097D01*
X101080655Y-73900655D01*
X100845097Y-74187683D01*
X100670061Y-74515152D01*
X100562275Y-74870476D01*
X100525880Y-75240000D01*
X100562275Y-75609524D01*
X100670061Y-75964848D01*
X100845097Y-76292317D01*
X101080655Y-76579345D01*
X101367683Y-76814903D01*
X101695152Y-76989939D01*
X102050476Y-77097725D01*
X102327403Y-77125000D01*
X104612597Y-77125000D01*
X104889524Y-77097725D01*
X105244848Y-76989939D01*
X105510001Y-76848212D01*
X105510000Y-90610000D01*
X75680000Y-90610000D01*
X75680000Y-83105000D01*
X85066928Y-83105000D01*
X85066928Y-83955000D01*
X85079188Y-84079482D01*
X85115498Y-84199180D01*
X85174463Y-84309494D01*
X85253815Y-84406185D01*
X85350506Y-84485537D01*
X85460820Y-84544502D01*
X85580518Y-84580812D01*
X85705000Y-84593072D01*
X86555000Y-84593072D01*
X86679482Y-84580812D01*
X86799180Y-84544502D01*
X86909494Y-84485537D01*
X87006185Y-84406185D01*
X87085537Y-84309494D01*
X87144502Y-84199180D01*
X87180812Y-84079482D01*
X87193072Y-83955000D01*
X87193072Y-83105000D01*
X87180812Y-82980518D01*
X87150321Y-82880000D01*
X101571928Y-82880000D01*
X101571928Y-84580000D01*
X101584188Y-84704482D01*
X101620498Y-84824180D01*
X101679463Y-84934494D01*
X101758815Y-85031185D01*
X101855506Y-85110537D01*
X101965820Y-85169502D01*
X102085518Y-85205812D01*
X102210000Y-85218072D01*
X103910000Y-85218072D01*
X104034482Y-85205812D01*
X104154180Y-85169502D01*
X104264494Y-85110537D01*
X104361185Y-85031185D01*
X104440537Y-84934494D01*
X104499502Y-84824180D01*
X104535812Y-84704482D01*
X104548072Y-84580000D01*
X104548072Y-82880000D01*
X104535812Y-82755518D01*
X104499502Y-82635820D01*
X104440537Y-82525506D01*
X104361185Y-82428815D01*
X104264494Y-82349463D01*
X104154180Y-82290498D01*
X104034482Y-82254188D01*
X103910000Y-82241928D01*
X102210000Y-82241928D01*
X102085518Y-82254188D01*
X101965820Y-82290498D01*
X101855506Y-82349463D01*
X101758815Y-82428815D01*
X101679463Y-82525506D01*
X101620498Y-82635820D01*
X101584188Y-82755518D01*
X101571928Y-82880000D01*
X87150321Y-82880000D01*
X87144502Y-82860820D01*
X87085537Y-82750506D01*
X87006185Y-82653815D01*
X86909494Y-82574463D01*
X86799180Y-82515498D01*
X86679482Y-82479188D01*
X86555000Y-82466928D01*
X85705000Y-82466928D01*
X85580518Y-82479188D01*
X85460820Y-82515498D01*
X85350506Y-82574463D01*
X85253815Y-82653815D01*
X85174463Y-82750506D01*
X85115498Y-82860820D01*
X85079188Y-82980518D01*
X85066928Y-83105000D01*
X75680000Y-83105000D01*
X75680000Y-79328514D01*
X96635000Y-79328514D01*
X96635000Y-79591486D01*
X96686304Y-79849405D01*
X96786939Y-80092359D01*
X96933038Y-80311013D01*
X97118987Y-80496962D01*
X97337641Y-80643061D01*
X97580595Y-80743696D01*
X97838514Y-80795000D01*
X98101486Y-80795000D01*
X98359405Y-80743696D01*
X98602359Y-80643061D01*
X98821013Y-80496962D01*
X99006962Y-80311013D01*
X99153061Y-80092359D01*
X99253696Y-79849405D01*
X99305000Y-79591486D01*
X99305000Y-79328514D01*
X101715000Y-79328514D01*
X101715000Y-79591486D01*
X101766304Y-79849405D01*
X101866939Y-80092359D01*
X102013038Y-80311013D01*
X102198987Y-80496962D01*
X102417641Y-80643061D01*
X102660595Y-80743696D01*
X102918514Y-80795000D01*
X103181486Y-80795000D01*
X103439405Y-80743696D01*
X103682359Y-80643061D01*
X103901013Y-80496962D01*
X104086962Y-80311013D01*
X104233061Y-80092359D01*
X104333696Y-79849405D01*
X104385000Y-79591486D01*
X104385000Y-79328514D01*
X104333696Y-79070595D01*
X104233061Y-78827641D01*
X104086962Y-78608987D01*
X103901013Y-78423038D01*
X103682359Y-78276939D01*
X103439405Y-78176304D01*
X103181486Y-78125000D01*
X102918514Y-78125000D01*
X102660595Y-78176304D01*
X102417641Y-78276939D01*
X102198987Y-78423038D01*
X102013038Y-78608987D01*
X101866939Y-78827641D01*
X101766304Y-79070595D01*
X101715000Y-79328514D01*
X99305000Y-79328514D01*
X99253696Y-79070595D01*
X99153061Y-78827641D01*
X99006962Y-78608987D01*
X98821013Y-78423038D01*
X98602359Y-78276939D01*
X98359405Y-78176304D01*
X98101486Y-78125000D01*
X97838514Y-78125000D01*
X97580595Y-78176304D01*
X97337641Y-78276939D01*
X97118987Y-78423038D01*
X96933038Y-78608987D01*
X96786939Y-78827641D01*
X96686304Y-79070595D01*
X96635000Y-79328514D01*
X75680000Y-79328514D01*
X75680000Y-76407957D01*
X75820655Y-76579345D01*
X76107683Y-76814903D01*
X76435152Y-76989939D01*
X76790476Y-77097725D01*
X77067403Y-77125000D01*
X79352597Y-77125000D01*
X79629524Y-77097725D01*
X79984848Y-76989939D01*
X80312317Y-76814903D01*
X80599345Y-76579345D01*
X80834903Y-76292317D01*
X81009939Y-75964848D01*
X81117725Y-75609524D01*
X81154120Y-75240000D01*
X85265880Y-75240000D01*
X85302275Y-75609524D01*
X85410061Y-75964848D01*
X85585097Y-76292317D01*
X85820655Y-76579345D01*
X86107683Y-76814903D01*
X86435152Y-76989939D01*
X86790476Y-77097725D01*
X87067403Y-77125000D01*
X89352597Y-77125000D01*
X89629524Y-77097725D01*
X89984848Y-76989939D01*
X90312317Y-76814903D01*
X90599345Y-76579345D01*
X90834903Y-76292317D01*
X90840000Y-76282781D01*
X90845097Y-76292317D01*
X91080655Y-76579345D01*
X91367683Y-76814903D01*
X91695152Y-76989939D01*
X92050476Y-77097725D01*
X92327403Y-77125000D01*
X94612597Y-77125000D01*
X94889524Y-77097725D01*
X95244848Y-76989939D01*
X95572317Y-76814903D01*
X95859345Y-76579345D01*
X96094903Y-76292317D01*
X96269939Y-75964848D01*
X96377725Y-75609524D01*
X96414120Y-75240000D01*
X96377725Y-74870476D01*
X96269939Y-74515152D01*
X96094903Y-74187683D01*
X95859345Y-73900655D01*
X95572317Y-73665097D01*
X95244848Y-73490061D01*
X94889524Y-73382275D01*
X94612597Y-73355000D01*
X92327403Y-73355000D01*
X92050476Y-73382275D01*
X91695152Y-73490061D01*
X91367683Y-73665097D01*
X91080655Y-73900655D01*
X90845097Y-74187683D01*
X90840000Y-74197219D01*
X90834903Y-74187683D01*
X90599345Y-73900655D01*
X90312317Y-73665097D01*
X89984848Y-73490061D01*
X89629524Y-73382275D01*
X89352597Y-73355000D01*
X87067403Y-73355000D01*
X86790476Y-73382275D01*
X86435152Y-73490061D01*
X86107683Y-73665097D01*
X85820655Y-73900655D01*
X85585097Y-74187683D01*
X85410061Y-74515152D01*
X85302275Y-74870476D01*
X85265880Y-75240000D01*
X81154120Y-75240000D01*
X81117725Y-74870476D01*
X81009939Y-74515152D01*
X80834903Y-74187683D01*
X80599345Y-73900655D01*
X80312317Y-73665097D01*
X79984848Y-73490061D01*
X79629524Y-73382275D01*
X79352597Y-73355000D01*
X77067403Y-73355000D01*
X76790476Y-73382275D01*
X76435152Y-73490061D01*
X76107683Y-73665097D01*
X75820655Y-73900655D01*
X75680000Y-74072043D01*
X75680000Y-71788816D01*
X81675000Y-71788816D01*
X81675000Y-72091184D01*
X81733989Y-72387743D01*
X81849701Y-72667095D01*
X82017688Y-72918505D01*
X82231495Y-73132312D01*
X82482905Y-73300299D01*
X82762257Y-73416011D01*
X83058816Y-73475000D01*
X83361184Y-73475000D01*
X83657743Y-73416011D01*
X83937095Y-73300299D01*
X84188505Y-73132312D01*
X84402312Y-72918505D01*
X84460000Y-72832169D01*
X84517688Y-72918505D01*
X84731495Y-73132312D01*
X84982905Y-73300299D01*
X85262257Y-73416011D01*
X85558816Y-73475000D01*
X85861184Y-73475000D01*
X86157743Y-73416011D01*
X86437095Y-73300299D01*
X86688505Y-73132312D01*
X86902312Y-72918505D01*
X87070299Y-72667095D01*
X87186011Y-72387743D01*
X87245000Y-72091184D01*
X87245000Y-71788816D01*
X96935000Y-71788816D01*
X96935000Y-72091184D01*
X96993989Y-72387743D01*
X97109701Y-72667095D01*
X97277688Y-72918505D01*
X97491495Y-73132312D01*
X97742905Y-73300299D01*
X98022257Y-73416011D01*
X98318816Y-73475000D01*
X98621184Y-73475000D01*
X98917743Y-73416011D01*
X99197095Y-73300299D01*
X99448505Y-73132312D01*
X99662312Y-72918505D01*
X99720000Y-72832169D01*
X99777688Y-72918505D01*
X99991495Y-73132312D01*
X100242905Y-73300299D01*
X100522257Y-73416011D01*
X100818816Y-73475000D01*
X101121184Y-73475000D01*
X101417743Y-73416011D01*
X101697095Y-73300299D01*
X101948505Y-73132312D01*
X102162312Y-72918505D01*
X102330299Y-72667095D01*
X102446011Y-72387743D01*
X102505000Y-72091184D01*
X102505000Y-71788816D01*
X102446011Y-71492257D01*
X102330299Y-71212905D01*
X102162312Y-70961495D01*
X101948505Y-70747688D01*
X101697095Y-70579701D01*
X101417743Y-70463989D01*
X101121184Y-70405000D01*
X100818816Y-70405000D01*
X100522257Y-70463989D01*
X100242905Y-70579701D01*
X99991495Y-70747688D01*
X99777688Y-70961495D01*
X99720000Y-71047831D01*
X99662312Y-70961495D01*
X99448505Y-70747688D01*
X99197095Y-70579701D01*
X98917743Y-70463989D01*
X98621184Y-70405000D01*
X98318816Y-70405000D01*
X98022257Y-70463989D01*
X97742905Y-70579701D01*
X97491495Y-70747688D01*
X97277688Y-70961495D01*
X97109701Y-71212905D01*
X96993989Y-71492257D01*
X96935000Y-71788816D01*
X87245000Y-71788816D01*
X87186011Y-71492257D01*
X87070299Y-71212905D01*
X86902312Y-70961495D01*
X86688505Y-70747688D01*
X86437095Y-70579701D01*
X86157743Y-70463989D01*
X85861184Y-70405000D01*
X85558816Y-70405000D01*
X85262257Y-70463989D01*
X84982905Y-70579701D01*
X84731495Y-70747688D01*
X84517688Y-70961495D01*
X84460000Y-71047831D01*
X84402312Y-70961495D01*
X84188505Y-70747688D01*
X83937095Y-70579701D01*
X83657743Y-70463989D01*
X83361184Y-70405000D01*
X83058816Y-70405000D01*
X82762257Y-70463989D01*
X82482905Y-70579701D01*
X82231495Y-70747688D01*
X82017688Y-70961495D01*
X81849701Y-71212905D01*
X81733989Y-71492257D01*
X81675000Y-71788816D01*
X75680000Y-71788816D01*
X75680000Y-69030000D01*
X105510001Y-69030000D01*
X105510001Y-73631788D01*
G37*
G04 #@! TD.AperFunction*
M02*
